<?xml version="1.0" encoding="UTF-8"?>
<svg id="Layer_1" data-name="Layer 1" xmlns="http://www.w3.org/2000/svg" viewBox="0 0 1069 1183">
  <defs>
    <style>
      .cls-1 {
        fill: #555b6e;
      }
    </style>
  </defs>
  <path class="cls-1" d="M540.03,674.94c-71.62,15.76-135.6-17.08-150.41-83.38-12.78-57.19,16.89-99.44,43.39-121.76-65.73,10.83-110.98,72.32-101.36,138.53,9.73,67,71.93,113.42,138.92,103.69,28.61-4.16,53.45-17.9,71.78-37.48-.77,.13-1.55,.23-2.32,.4Z"/>
  <path class="cls-1" d="M475.39,543.2c-12.19-3.45-21.81-13.07-25.26-25.26-8.32-29.39,17.95-55.66,47.34-47.33,12.19,3.45,21.81,13.07,25.26,25.26,8.31,29.39-17.96,55.65-47.34,47.33Z"/>
  <path class="cls-1" d="M681.7,579.35c-15.19-.97-27.5-13.29-28.46-28.48-.37-5.87,.92-11.41,3.45-16.19-5.03,4.87-10.26,10.32-15.34,15.89-2.86,3.14-5.67,6.31-8.35,9.43-.67,.78-1.33,1.55-1.98,2.32v151.04h-60.16v-195.25h24.55c19.67,0,35.61,15.94,35.61,35.61v1c17.09-21.46,32.75-30.29,39.43-33.32,.14-.07,.27-.13,.4-.19,.01,0,.03-.02,.05-.02,.17-.08,.34-.15,.5-.22,.36-.15,.68-.29,.96-.4,.1-.04,.19-.08,.27-.11,.17-.07,.33-.13,.47-.18,.07-.03,.13-.05,.19-.07,.06-.02,.12-.04,.17-.06,.13-.05,.24-.08,.31-.11,.06-.02,.1-.03,.1-.03,3.66-1.26,7.65-1.83,11.8-1.56,15.19,.95,27.51,13.28,28.47,28.46,1.17,18.42-14.02,33.61-32.44,32.44Z"/>
</svg>